<?xml version="1.0" encoding="UTF-8"?>
<svg id="Calque_2" data-name="Calque 2" xmlns="http://www.w3.org/2000/svg" viewBox="0 0 198.26 363.08">
  <defs>
    <style>
      .cls-1 {
        fill: #783d1a;
        stroke-width: 0px;
      }
    </style>
  </defs>
  <g id="Calque_1-2" data-name="Calque 1">
    <g>
      <g>
        <path class="cls-1" d="m12.44,19.67h0s-.02-.1-.02-.15c0,.05.02.1.03.15Z"/>
        <path class="cls-1" d="m198.25,30.71C198.25,13.67,184.59,0,167.54,0,124.04,0,80.54,0,37.05,0c-3.25,0-6.49.02-9.74.12-1.61.05-6.32,1.29-6.69,1.42C8.47,5.71.03,17.57.03,30.56,0,131.2,0,231.85,0,332.49c0,1.82.78,5.53.8,5.62.04.2.11,1.89.28,2.48,3.85,13.47,15.55,22.46,29.46,22.47,45.77.03,91.54.03,137.31,0,16.83-.01,30.41-13.78,30.41-30.66,0-100.56,0-201.12,0-301.68Zm-9.8,4.32c-.1,12.98,0,25.95,0,38.93,0,84.58-.03,169.16-.01,253.74,0,5.33-.14,10.58-2.55,15.49l-.09.19c-1.06.82-7.39,6.95-9.85,8.74-.5.14-.99.28-1.49.42,0,0-144.38,1.14-145.46,1.13-5.37-.92-9.98-3.41-14.09-6.91-.14-.16-2.39-3.23-2.5-3.46-1.5-3.92-2.63-7.86-2.63-12.17.05-98.59.05-197.18,0-295.77,0-.06,0-.11,0-.17,0-8.57,4.07-16.63,10.94-21.74,1.41-1.05,2.75-2.02,3.8-2.73s2.18-1.08,3.39-1.18c1.01-.09,4.32.02,5.29.02,42.44.01,84.89.01,127.33,0,.57,0,4.37.04,7.44.08,3.41.05,6.76.96,9.7,2.69,3.15,1.85,5.89,4.25,8.13,7.35l.1.2c2.3,4.81,2.61,9.93,2.57,15.17Z"/>
        <path class="cls-1" d="m12.44,19.67h0s-.02-.1-.02-.15c0,.05.02.1.03.15Z"/>
        <path class="cls-1" d="m174.58,56.7c-50.31,0-100.61,0-150.92-.01-5.37,0-7.09,1.67-7.09,6.89,0,39.28,0,78.57,0,117.86h.04c0,38.96,0,77.92,0,116.88,0,5.89,1.39,7.28,7.21,7.28,49.98,0,99.96,0,149.94,0,1.08,0,2.17,0,3.24-.06,2.35-.14,3.87-1.35,4.22-3.7.24-1.6.32-3.23.32-4.85.03-34.31.04-68.61.04-102.92.01-43.4.02-86.8.02-130.19,0-5.73-1.44-7.18-7.03-7.18Zm-6.73,239.45c-45.98-.12-91.95-.1-137.93-.02-2.87,0-3.64-.84-3.64-3.68.07-73.7.06-147.4.06-221.1,0-5.11,0-5.06,5.17-5.06,45.22.01,90.44.01,135.66.02q4.71,0,4.71,4.84c0,36.69,0,73.38,0,110.07h0c0,36.9-.04,73.81.06,110.71,0,3.17-.69,4.24-4.09,4.23Z"/>
        <path class="cls-1" d="m99.11,345.36c-9.33.05-17.21-7.7-17.33-17.04-.12-9.46,7.75-17.47,17.2-17.52,9.52-.06,17.35,7.66,17.48,17.25.13,9.38-7.77,17.26-17.35,17.31Zm0-24.92c-4.15,0-7.66,3.38-7.78,7.52-.12,4.04,3.72,7.96,7.79,7.95,4.14,0,7.63-3.61,7.73-7.96.09-3.96-3.56-7.5-7.75-7.5Z"/>
        <path class="cls-1" d="m119.2,28.03c4.97,0,9.95-.05,14.92.02,3.38.04,5.31,1.88,5.26,4.8-.04,2.65-2.07,4.56-5.24,4.58-10.16.07-20.33.07-30.49,0-3.18-.02-4.99-1.89-5.02-4.74-.03-2.9,1.67-4.59,5-4.64,5.19-.09,10.38-.02,15.57-.02h0Z"/>
        <path class="cls-1" d="m80.84,38.29c-2.96-.07-5.27-2.53-5.2-5.52.07-2.9,2.67-5.31,5.55-5.15,2.82.16,5.03,2.52,5.01,5.35-.02,3.06-2.38,5.39-5.36,5.31Z"/>
      </g>
      <g>
        <path class="cls-1" d="m131.3,138.28c12.54,8.39,20.47,19.79,23.31,34.51.17.86.27,1.72.29,2.6.07,2.38.45,4.74.45,7.12,0,2.23-.59,4.4-.44,6.63-.58,4.19-1.56,8.27-3.29,12.16-.15.34-.67,1.49-.8,1.81-.99,2.32-2.18,4.53-3.5,6.67-.68,1.11-8.67,10.65-11.23,12.34-1.81,1.19-3.22,3.86-6.06,1.91-.81-.46-1.7-.82-2.44-1.67,2.36-1.72,4.82-3.26,6.98-5.2,7.04-6.32,11.88-13.92,14.37-23.11,2.04-7.56,2.06-15.1.4-22.64-1.56-7.06-4.91-13.34-9.36-19.02-.09-.12-1.51-1.82-2.41-.62-.48.64-12.34,12.39-14.63,14.77-2.47,2.22-9.32,9.17-10.34,10.41-.22.15-.47.28-.65.46-4.63,4.58-9.25,9.17-13.88,13.75-3.47,3.51-6.95,7-10.39,10.54-.87.9-6.1,6.11-7.82,7.84-1.18,1.19-5.49,5.66-5.49,5.66-.56.56-1.99.75-1.13,1.94.42.58,15.36,9.67,23.38,10.95,4.6.73,9.18.85,13.77.07.94-.16,1.64.13,2.11.93.37.63.85,1.15,1.43,1.58.05.66,2.11,1.26.06,1.99-1.12-.03-2.2.17-3.26.49l-1.46.21c-3.35.01-6.7.03-10.06.04-20.85-2.6-35.6-13.53-43.38-33.01-5.76-14.44-4.43-28.8,2.93-42.59.53,2.01,1.06,4.02,1.57,6.03.41,1.58-.49,2.93-.92,4.33-2.83,9.27-2.88,18.5,0,27.77,1.79,5.74,4.65,10.84,8.27,15.58.88,1.15,1.53,1.53,2.67.45,3.67-3.47,11.39-11.14,11.69-11.44,1.94-1.95,3.9-3.88,5.82-5.85,1.99-2.03,4.2-3.85,5.91-6.15,1.61-1.11,7.41-7.13,7.84-7.54,4.11-4.1,8.24-8.18,12.28-12.34,1.44-1.48,11.24-11.44,14.78-14.85,1.7-1.63,3.29-3.38,5.06-4.95,1.28-1.13,1.06-1.72-.19-2.76-3.65-3.03-7.68-5.36-12.02-7.17-.96-.4-1.54-1-1.99-1.85-.51-.97-1.05-1.93-1.58-2.9-.48-1.37.28-1.5,1.34-1.34,3.24,1.02,6.24,2.58,9.36,3.88"/>
        <path class="cls-1" d="m77.67,121.72c7.6,3.22,14.07,7.85,18.03,15.29,5.11,9.6,3.14,18.97-1.32,28.23-.22-.09-.43-.11-.5-.22-1.37-2.31-3.34-4.01-5.51-5.52-5.87-4.09-8.53-9.79-8.5-16.87.02-5.02.26-10.04-.41-15.04-.27-2.03-.7-4.02-1.8-5.88Z"/>
        <path class="cls-1" d="m96.21,182.86c-4.89.23-9.7-.15-14.31-1.94-7.19-2.79-11.88-8.08-14.88-15.03-1.87-4.34-2.88-8.89-3.23-13.71,4.6,4.88,10.87,6.22,16.72,8.4,2.09.78,4.24,1.38,6.23,2.42,5.04,2.67,8.01,6.93,9.55,12.33.67,2.34,1.38,4.68,3.21,6.46.18.66-.31.7-.73.76-.85.12-1.71.21-2.56.31Z"/>
        <path class="cls-1" d="m118.03,163.99c-.84,2.01-2.68,3.16-4.12,4.64-4.04,4.16-8.18,8.24-12.29,12.34-.42.42-.79.95-1.44,1.07-.04-.11-.07-.22-.11-.33.47-2.62-.17-5.1-.96-7.55-2.21-6.87-.94-13.07,3.46-18.7,2.87-3.69,5.82-7.33,8.24-11.35,1.22-2.02,2.2-4.12,2.51-6.65.81.71,1.11,1.58,1.49,2.39,3.47,7.38,5.29,14.99,3.2,23.15-.08.31.01.66.03,1Z"/>
        <path class="cls-1" d="m145.99,239.05c-17.1-.49-33.11-12.45-38.36-28.78-.49-1.51-1.1-1.78-2.56-1.63-7.05.69-13.8-.21-19.9-4.14.51-1.23,1.64-1.91,2.51-2.81,3.44-3.54,6.92-7.03,10.39-10.54,3.33,3.1,5.25,6.98,6.41,11.32.4,1.51,1.05,2.93,2,4.19.34.45.53,1.35,1.23,1.12.56-.17.26-.97.29-1.5.15-1.97-.43-3.85-.82-5.75-.23-.19-.24-.44-.22-.7-.54-1.28-.78-2.62-.87-3.99-.08-.1-.1-.2-.05-.31-.43-3.76.15-7.29,2.18-10.53.27-.54.48-1.12.83-1.6,1.34-1.89,2.73-3.74,4.1-5.61,1.18-1.21,2.18-2.55,2.95-4.06,2.01-2.65,4.37-4.97,6.84-7.19,1.37,2.68,2.36,5.5,2.88,8.46,1.24,4.97,1.31,9.93-.28,14.84-.16.93-.5,1.79-.93,2.61-.44,1.4-1.16,2.64-2.06,3.79-.17.51-.47.92-.89,1.24-.4.88-1.06,1.55-1.76,2.19l-.07.06c-.76.97-1.6,1.88-2.67,2.54-.13.1-.26.19-.39.28-.42.69-1.08,1.08-1.76,1.45-.1.07-.2.13-.31.21-.97.95-2.15,1.61-3.36,2.2-.03.04-.06.1-.1.13-2.96,1.9-3.04,1.95-1.2,5.09,8.28,14.19,20.61,21.65,37.09,22.05,1.54.04,1.97.47,2.05,1.95.19,3.51.26,3.51-3.2,3.41Z"/>
        <path class="cls-1" d="m93.79,188.51c-1.71,2.3-3.92,4.12-5.91,6.15-1.92,1.97-3.88,3.9-5.82,5.85-.3.3-.52.74-1.06.67-6.1-6.32-8.51-14.13-9.42-23.05,4.43,4.59,10.02,5.93,15.29,7.92,2.29.87,4.61,1.65,6.92,2.46Z"/>
        <path class="cls-1" d="m104.29,130.54c1.6.08,3.04.21,4.48.22,1.16,0,1.3.57,1,1.49-.03.11-.07.21-.11.32q-1.08,2.94-4.23,2.9c-.17,0-.34-.04-.5,0-3.3.88-4.71-1.23-5.99-3.68-.4-.76-.28-.98.5-1.02,1.66-.08,3.33-.16,4.84-.23Z"/>
        <path class="cls-1" d="m74.37,146.2c-1.25.53-2.13,1.55-2.93,2.54-.97,1.21-1.75.97-2.74.16-.58-.48-1-1.18-1.78-1.4-.4-.65-.1-1.07.36-1.59,1.91-2.19,4.36-3.76,6.47-5.72.8-.03.65.57.66,1.04.05,1.66.26,3.32-.04,4.97Z"/>
      </g>
    </g>
  </g>
</svg>